<?xml version="1.0" encoding="UTF-8" standalone="no"?>
<svg
   xmlns:osb="http://www.openswatchbook.org/uri/2009/osb"
   xmlns:dc="http://purl.org/dc/elements/1.1/"
   xmlns:cc="http://creativecommons.org/ns#"
   xmlns:rdf="http://www.w3.org/1999/02/22-rdf-syntax-ns#"
   xmlns:svg="http://www.w3.org/2000/svg"
   xmlns="http://www.w3.org/2000/svg"
   id="svg8"
   version="1.1"
   viewBox="0 0 175.25854 36.792779"
   height="36.792778mm"
   width="175.25853mm">
  <defs
     id="defs2">
    <linearGradient
       osb:paint="solid"
       id="linearGradient6047">
      <stop
         id="stop6045"
         offset="0"
         style="stop-color:#000000;stop-opacity:1;" />
    </linearGradient>
  </defs>
  <metadata
     id="metadata5">
    <rdf:RDF>
      <cc:Work
         rdf:about="">
        <dc:format>image/svg+xml</dc:format>
        <dc:type
           rdf:resource="http://purl.org/dc/dcmitype/StillImage" />
        <dc:title></dc:title>
      </cc:Work>
    </rdf:RDF>
  </metadata>
  <g
     transform="translate(35.123138,-74.531844)"
     id="layer1">
    <text
       id="text821"
       y="57.287498"
       x="43.391666"
       style="font-style:normal;font-weight:normal;font-size:10.58333302px;line-height:1.25;font-family:sans-serif;letter-spacing:0px;word-spacing:0px;fill:#000000;fill-opacity:1;stroke:none;stroke-width:0.26458332"
       xml:space="preserve"><tspan
         style="stroke-width:0.26458332"
         y="66.651268"
         x="43.391666"
         id="tspan819" /></text>
    <text
       id="text825"
       y="57.552082"
       x="49.741665"
       style="font-style:normal;font-variant:normal;font-weight:900;font-stretch:normal;font-size:10.58333302px;line-height:1.25;font-family:'Delicious Heavy';-inkscape-font-specification:'Delicious Heavy, Heavy';font-variant-ligatures:normal;font-variant-caps:normal;font-variant-numeric:normal;font-feature-settings:normal;text-align:start;letter-spacing:0px;word-spacing:0px;writing-mode:lr-tb;text-anchor:start;fill:#000000;fill-opacity:1;stroke:none;stroke-width:0.26458332"
       xml:space="preserve"><tspan
         style="stroke-width:0.26458332"
         y="67.329498"
         x="49.741665"
         id="tspan823" /></text>
    <g
       id="text829"
       style="font-style:normal;font-variant:normal;font-weight:bold;font-stretch:normal;font-size:10.58333302px;line-height:1.25;font-family:Delicious;-inkscape-font-specification:'Delicious, Bold';font-variant-ligatures:normal;font-variant-caps:normal;font-variant-numeric:normal;font-feature-settings:normal;text-align:start;letter-spacing:-0.76729167px;word-spacing:0px;writing-mode:lr-tb;text-anchor:start;fill:#000000;fill-opacity:1;stroke:none;stroke-width:0.26458332"
       aria-label="Epoch">
      <path
         id="path3817"
         style="font-style:normal;font-variant:normal;font-weight:bold;font-stretch:normal;font-size:22.57777786px;font-family:Delicious;-inkscape-font-specification:'Delicious, Bold';font-variant-ligatures:normal;font-variant-caps:normal;font-variant-numeric:normal;font-feature-settings:normal;text-align:start;letter-spacing:-0.5291667px;writing-mode:lr-tb;text-anchor:start;stroke-width:0.26458332"
         d="m 14.384815,99.883339 v -2.2352 H 8.94357 v -4.064 h 3.996267 V 91.371517 H 8.94357 v -3.522134 h 5.215467 V 85.659339 H 6.4825923 v 14.224 z" />
      <path
         id="path3819"
         style="font-style:normal;font-variant:normal;font-weight:bold;font-stretch:normal;font-size:22.57777786px;font-family:Delicious;-inkscape-font-specification:'Delicious, Bold';font-variant-ligatures:normal;font-variant-caps:normal;font-variant-numeric:normal;font-feature-settings:normal;text-align:start;letter-spacing:-0.5291667px;writing-mode:lr-tb;text-anchor:start;stroke-width:0.26458332"
         d="m 25.23767,93.855072 c 0,-2.460978 -1.286933,-5.373511 -4.109155,-5.373511 -1.264356,0 -2.190045,0.880533 -2.4384,1.151467 v -0.8128 H 16.29687 v 15.014222 h 2.393245 v -4.741333 c 0.428978,0.790222 1.377244,1.128893 2.302933,1.128893 3.431822,0 4.244622,-3.657604 4.244622,-6.366938 z m -2.4384,0.225778 c 0,1.196622 -0.180622,4.086578 -1.896533,4.086578 -1.896533,0 -2.212622,-2.280356 -2.212622,-3.680178 v -2.754489 c 0.519289,-0.496711 1.286933,-1.128889 2.212622,-1.128889 1.670756,0 1.896533,2.212622 1.896533,3.476978 z" />
      <path
         id="path3821"
         style="font-style:normal;font-variant:normal;font-weight:bold;font-stretch:normal;font-size:22.57777786px;font-family:Delicious;-inkscape-font-specification:'Delicious, Bold';font-variant-ligatures:normal;font-variant-caps:normal;font-variant-numeric:normal;font-feature-settings:normal;text-align:start;letter-spacing:-0.5291667px;writing-mode:lr-tb;text-anchor:start;stroke-width:0.26458332"
         d="m 35.695414,94.351783 c 0,-2.754489 -1.467555,-5.870222 -4.515555,-5.870222 -3.048,0 -4.515556,3.115733 -4.515556,5.870222 0,2.777067 1.467556,5.870227 4.515556,5.870227 3.048,0 4.515555,-3.09316 4.515555,-5.870227 z m -2.370667,0 c 0,2.009423 -0.8128,3.838223 -2.144888,3.838223 -1.332089,0 -2.144889,-1.8288 -2.144889,-3.838223 0,-1.986844 0.8128,-3.838222 2.144889,-3.838222 1.332088,0 2.144888,1.851378 2.144888,3.838222 z" />
      <path
         id="path3823"
         style="font-style:normal;font-variant:normal;font-weight:bold;font-stretch:normal;font-size:22.57777786px;font-family:Delicious;-inkscape-font-specification:'Delicious, Bold';font-variant-ligatures:normal;font-variant-caps:normal;font-variant-numeric:normal;font-feature-settings:normal;text-align:start;letter-spacing:-0.5291667px;writing-mode:lr-tb;text-anchor:start;stroke-width:0.26458332"
         d="m 45.174552,98.709294 -0.8128,-1.6256 c -0.654755,0.519289 -1.761066,1.128889 -2.596444,1.128889 -1.738489,0 -2.280356,-2.6416 -2.280356,-3.973689 0,-1.264355 0.632178,-3.770488 2.212623,-3.770488 0.677333,0 1.512711,0.316088 2.032,0.767644 l 1.196622,-1.399822 c -0.722489,-0.903111 -2.144889,-1.354667 -3.2512,-1.354667 -3.160889,0 -4.560711,3.2512 -4.560711,5.983111 0,2.6416 1.467555,5.757338 4.492977,5.757338 1.2192,0 2.664178,-0.677338 3.567289,-1.512716 z" />
      <path
         id="path3825"
         style="font-style:normal;font-variant:normal;font-weight:bold;font-stretch:normal;font-size:22.57777786px;font-family:Delicious;-inkscape-font-specification:'Delicious, Bold';font-variant-ligatures:normal;font-variant-caps:normal;font-variant-numeric:normal;font-feature-settings:normal;text-align:start;letter-spacing:-0.5291667px;writing-mode:lr-tb;text-anchor:start;stroke-width:0.26458332"
         d="m 55.011055,99.883339 v -8.173156 c 0,-1.693333 -0.451556,-3.228622 -2.980267,-3.228622 -0.970844,0 -2.280356,0.564445 -3.025422,1.151467 v -5.441245 h -2.370667 v 15.691556 h 2.370667 v -8.173156 c 0.541866,-0.428977 1.761066,-1.151466 2.754489,-1.151466 0.745066,0 0.880533,0.293511 0.880533,1.151466 v 8.173156 z" />
    </g>
    <g
       id="text833"
       style="font-style:italic;font-variant:normal;font-weight:500;font-stretch:normal;font-size:10.58333302px;line-height:1.25;font-family:Delicious;-inkscape-font-specification:'Delicious, Medium Italic';font-variant-ligatures:normal;font-variant-caps:normal;font-variant-numeric:normal;font-feature-settings:normal;text-align:start;letter-spacing:-0.76729167px;word-spacing:0px;writing-mode:lr-tb;text-anchor:start;fill:#000000;fill-opacity:1;stroke:none;stroke-width:0.26458332"
       aria-label="Converter">
      <path
         id="path3828"
         style="font-style:normal;font-variant:normal;font-weight:500;font-stretch:normal;font-size:22.57777786px;font-family:Delicious;-inkscape-font-specification:'Delicious, Medium';font-variant-ligatures:normal;font-variant-caps:normal;font-variant-numeric:normal;font-feature-settings:normal;text-align:start;letter-spacing:-0.5291667px;writing-mode:lr-tb;text-anchor:start;stroke-width:0.26458332"
         d="m 67.42873,98.905686 -0.767645,-1.128889 c -0.8128,0.6096 -2.054578,0.925689 -3.070578,0.925689 -3.002844,0 -3.770489,-3.499555 -3.770489,-5.8928 0,-2.122311 1.038578,-6.118578 3.725334,-6.118578 1.083733,0 2.054578,0.2032 3.002844,0.722489 l 0.654756,-1.174044 c -1.016,-0.654756 -2.460978,-0.970845 -3.6576,-0.970845 -3.905956,0 -5.531556,4.131734 -5.531556,7.450667 0,3.476978 1.354667,7.450665 5.4864,7.450665 1.286934,0 2.912534,-0.451554 3.928534,-1.264354 z" />
      <path
         id="path3830"
         style="font-style:normal;font-variant:normal;font-weight:500;font-stretch:normal;font-size:22.57777786px;font-family:Delicious;-inkscape-font-specification:'Delicious, Medium';font-variant-ligatures:normal;font-variant-caps:normal;font-variant-numeric:normal;font-feature-settings:normal;text-align:start;letter-spacing:-0.5291667px;writing-mode:lr-tb;text-anchor:start;stroke-width:0.26458332"
         d="m 72.952524,89.784264 c 1.873956,0 2.686756,2.8448 2.686756,4.538133 0,1.693334 -0.8128,4.492978 -2.686756,4.492978 -1.873955,0 -2.686755,-2.799644 -2.686755,-4.492978 0,-1.693333 0.8128,-4.538133 2.686755,-4.538133 z m 0,-1.354667 c -3.048,0 -4.402667,3.296356 -4.402667,5.8928 0,2.596445 1.377245,5.847643 4.402667,5.847643 3.025422,0 4.402667,-3.251198 4.402667,-5.847643 0,-2.596444 -1.354667,-5.8928 -4.402667,-5.8928 z" />
      <path
         id="path3832"
         style="font-style:normal;font-variant:normal;font-weight:500;font-stretch:normal;font-size:22.57777786px;font-family:Delicious;-inkscape-font-specification:'Delicious, Medium';font-variant-ligatures:normal;font-variant-caps:normal;font-variant-numeric:normal;font-feature-settings:normal;text-align:start;letter-spacing:-0.5291667px;writing-mode:lr-tb;text-anchor:start;stroke-width:0.26458332"
         d="m 87.850329,99.831375 v -8.398933 c 0,-1.693334 -0.4064,-3.002845 -2.754489,-3.002845 -1.196622,0 -2.822222,0.6096 -3.589867,1.151467 v -0.8128 h -1.715911 v 11.063111 h 1.715911 v -8.850489 c 0.519289,-0.451555 2.054578,-1.151466 3.296356,-1.151466 1.128889,0 1.332089,0.6096 1.332089,1.603022 v 8.398933 z" />
      <path
         id="path3834"
         style="font-style:normal;font-variant:normal;font-weight:500;font-stretch:normal;font-size:22.57777786px;font-family:Delicious;-inkscape-font-specification:'Delicious, Medium';font-variant-ligatures:normal;font-variant-caps:normal;font-variant-numeric:normal;font-feature-settings:normal;text-align:start;letter-spacing:-0.5291667px;writing-mode:lr-tb;text-anchor:start;stroke-width:0.26458332"
         d="m 99.051022,88.768264 h -1.715911 c -0.654756,3.115733 -1.783644,6.208889 -3.070578,9.121422 l -3.048,-9.121422 H 89.365155 L 93.384,99.831375 h 1.693333 c 1.693334,-3.386667 3.093156,-7.382933 3.973689,-11.063111 z" />
      <path
         id="path3836"
         style="font-style:normal;font-variant:normal;font-weight:500;font-stretch:normal;font-size:22.57777786px;font-family:Delicious;-inkscape-font-specification:'Delicious, Medium';font-variant-ligatures:normal;font-variant-caps:normal;font-variant-numeric:normal;font-feature-settings:normal;text-align:start;letter-spacing:-0.5291667px;writing-mode:lr-tb;text-anchor:start;stroke-width:0.26458332"
         d="m 106.67631,92.47102 h -4.80906 c 0.27093,-1.241778 1.15146,-2.686756 2.57386,-2.686756 1.4224,0 2.2352,1.4224 2.2352,2.686756 z m 1.80623,1.286933 c -0.0226,-0.383822 -0.0226,-0.767645 -0.0452,-1.151467 -0.13547,-2.077155 -1.60302,-4.176889 -3.83822,-4.176889 -2.95769,0 -4.69618,2.867378 -4.69618,5.576711 0,2.6416 1.03858,6.163732 4.2672,6.163732 1.28693,0 2.88996,-0.835376 3.8608,-1.670754 l -0.54187,-1.083733 c -0.72249,0.496711 -2.28035,1.399822 -3.13831,1.399822 -2.05458,0 -2.68675,-3.048 -2.68675,-4.628444 0,-0.158045 0,-0.293511 0,-0.428978 z" />
      <path
         id="path3838"
         style="font-style:normal;font-variant:normal;font-weight:500;font-stretch:normal;font-size:22.57777786px;font-family:Delicious;-inkscape-font-specification:'Delicious, Medium';font-variant-ligatures:normal;font-variant-caps:normal;font-variant-numeric:normal;font-feature-settings:normal;text-align:start;letter-spacing:-0.5291667px;writing-mode:lr-tb;text-anchor:start;stroke-width:0.26458332"
         d="m 115.98436,88.768264 c 0,0 -0.49671,-0.338667 -1.10631,-0.338667 -1.37725,0 -1.91911,0.745067 -2.39325,1.2192 v -0.880533 h -1.73849 v 11.063111 h 1.71591 v -8.624711 c 0.47414,-0.474133 1.12889,-1.196622 1.89654,-1.196622 0.65475,0 1.016,0.293511 1.016,0.293511 z" />
      <path
         id="path3840"
         style="font-style:normal;font-variant:normal;font-weight:500;font-stretch:normal;font-size:22.57777786px;font-family:Delicious;-inkscape-font-specification:'Delicious, Medium';font-variant-ligatures:normal;font-variant-caps:normal;font-variant-numeric:normal;font-feature-settings:normal;text-align:start;letter-spacing:-0.5291667px;writing-mode:lr-tb;text-anchor:start;stroke-width:0.26458332"
         d="m 121.89797,99.537864 -0.38382,-1.061156 c 0,0 -0.74507,0.316089 -1.30951,0.316089 -0.51929,0 -0.88054,-0.270933 -0.88054,-1.241777 v -7.473245 h 2.19005 v -1.309511 h -2.2352 v -1.964267 h -1.58045 v 1.964267 h -1.58044 v 1.106311 l 1.49013,0.2032 v 7.563556 c 0,1.896533 0.92569,2.528709 1.98685,2.528709 1.30951,0 2.30293,-0.632176 2.30293,-0.632176 z" />
      <path
         id="path3842"
         style="font-style:normal;font-variant:normal;font-weight:500;font-stretch:normal;font-size:22.57777786px;font-family:Delicious;-inkscape-font-specification:'Delicious, Medium';font-variant-ligatures:normal;font-variant-caps:normal;font-variant-numeric:normal;font-feature-settings:normal;text-align:start;letter-spacing:-0.5291667px;writing-mode:lr-tb;text-anchor:start;stroke-width:0.26458332"
         d="m 129.82736,92.47102 h -4.80907 c 0.27094,-1.241778 1.15147,-2.686756 2.57387,-2.686756 1.4224,0 2.2352,1.4224 2.2352,2.686756 z m 1.80622,1.286933 c -0.0226,-0.383822 -0.0226,-0.767645 -0.0452,-1.151467 -0.13547,-2.077155 -1.60303,-4.176889 -3.83823,-4.176889 -2.95768,0 -4.69617,2.867378 -4.69617,5.576711 0,2.6416 1.03857,6.163732 4.2672,6.163732 1.28693,0 2.88995,-0.835376 3.8608,-1.670754 l -0.54187,-1.083733 c -0.72249,0.496711 -2.28036,1.399822 -3.13831,1.399822 -2.05458,0 -2.68676,-3.048 -2.68676,-4.628444 0,-0.158045 0,-0.293511 0,-0.428978 z" />
      <path
         id="path3844"
         style="font-style:normal;font-variant:normal;font-weight:500;font-stretch:normal;font-size:22.57777786px;font-family:Delicious;-inkscape-font-specification:'Delicious, Medium';font-variant-ligatures:normal;font-variant-caps:normal;font-variant-numeric:normal;font-feature-settings:normal;text-align:start;letter-spacing:-0.5291667px;writing-mode:lr-tb;text-anchor:start;stroke-width:0.26458332"
         d="m 139.1354,88.768264 c 0,0 -0.49671,-0.338667 -1.10631,-0.338667 -1.37725,0 -1.91912,0.745067 -2.39325,1.2192 v -0.880533 h -1.73849 v 11.063111 h 1.71591 v -8.624711 c 0.47414,-0.474133 1.12889,-1.196622 1.89654,-1.196622 0.65475,0 1.016,0.293511 1.016,0.293511 z" />
    </g>
    <g
       transform="matrix(0.73575784,0,0,0.7318912,-89.131511,40.349474)"
       id="layer1-4">
      <g
         id="g18"
         transform="matrix(0.35277777,0,0,-0.35277777,-9.2232843,213.97287)">
        <g
           id="g20"
           transform="scale(0.1)">
          <path
             d="m 3613.5401,4036.4651 c 0,-329.75 -267.325,-597.0744 -597.075,-597.0744 -329.77,0 -597.0939,267.3244 -597.0939,597.0744 0,329.769 267.3239,597.095 597.0939,597.095 329.75,0 597.075,-267.326 597.075,-597.095"
             style="fill:#ffffff;fill-opacity:1;fill-rule:nonzero;stroke:none"
             id="path22" />
          <path
             d="m 3613.5401,4036.4651 c 0,-329.75 -267.325,-597.0744 -597.075,-597.0744 -329.77,0 -597.0939,267.3244 -597.0939,597.0744 0,329.769 267.3239,597.095 597.0939,597.095 329.75,0 597.075,-267.326 597.075,-597.095 z"
             style="fill:none;stroke:#231f20;stroke-width:98.74449921;stroke-linecap:butt;stroke-linejoin:miter;stroke-miterlimit:4;stroke-dasharray:none;stroke-opacity:1"
             id="path24" />
          <path
             d="m 3041.1721,4551.1301 c 0,-9.37 -12.113,-16.96 -27.055,-16.96 v 0 c -14.945,0 -27.062,7.59 -27.062,16.96 v 85.95 c 0,9.37 12.117,16.96 27.062,16.96 v 0 c 14.942,0 27.055,-7.59 27.055,-16.96 v -85.95"
             style="fill:#231f20;fill-opacity:1;fill-rule:nonzero;stroke:none"
             id="path26" />
          <path
             d="m 2780.5271,4494.5401 c 4.684,-8.11 -2.007,-20.75 -14.945,-28.22 v 0 c -12.945,-7.47 -27.23,-6.95 -31.922,1.16 l -42.972,74.43 c -4.68,8.11 2.011,20.75 14.957,28.22 v 0 c 12.941,7.48 27.222,6.96 31.91,-1.15 l 42.972,-74.44"
             style="fill:#231f20;fill-opacity:1;fill-rule:nonzero;stroke:none"
             id="path28" />
          <path
             d="m 2583.1021,4315.2071 c 8.109,-4.684 8.632,-18.977 1.16,-31.914 v 0 c -7.465,-12.945 -20.102,-19.637 -28.215,-14.949 l -74.438,42.969 c -8.109,4.687 -8.629,18.976 -1.16,31.914 v 0 c 7.473,12.945 20.102,19.632 28.219,14.953 l 74.434,-42.973"
             style="fill:#231f20;fill-opacity:1;fill-rule:nonzero;stroke:none"
             id="path30" />
          <path
             d="m 2501.7931,4061.1841 c 9.363,0 16.969,-12.106 16.969,-27.059 v 0 c 0,-14.941 -7.602,-27.051 -16.977,-27.051 h -85.9412 c -9.3633,0 -16.961,12.11 -16.961,27.051 v 0 c 0,14.953 7.5899,27.059 16.961,27.059 h 85.9492"
             style="fill:#231f20;fill-opacity:1;fill-rule:nonzero;stroke:none"
             id="path32" />
          <path
             d="m 2558.3911,3800.5511 c 8.109,4.679 20.746,-2.02 28.214,-14.969 v 0 c 7.473,-12.922 6.954,-27.219 -1.16,-31.906 l -74.433,-42.957 c -8.114,-4.699 -20.746,2 -28.215,14.929 v 0 c -7.477,12.95 -6.953,27.239 1.156,31.915 l 74.438,42.988"
             style="fill:#231f20;fill-opacity:1;fill-rule:nonzero;stroke:none"
             id="path34" />
          <path
             d="m 2737.7191,3603.1291 c 4.683,8.101 18.976,8.621 31.914,1.141 v 0 c 12.945,-7.461 19.64,-20.098 14.957,-28.211 l -42.981,-74.43 c -4.679,-8.117 -18.968,-8.641 -31.906,-1.168 v 0 c -12.945,7.461 -19.637,20.098 -14.961,28.23 l 42.977,74.438"
             style="fill:#231f20;fill-opacity:1;fill-rule:nonzero;stroke:none"
             id="path36" />
          <path
             d="m 2991.7341,3521.8091 c 0.012,9.363 12.121,16.953 27.067,16.953 v 0 c 14.945,0 27.058,-7.59 27.058,-16.953 l -0.01,-85.9574 c 0,-9.3516 -12.106,-16.9532 -27.051,-16.9532 v 0 c -14.946,0 -27.055,7.6016 -27.067,16.9532 v 85.9574"
             style="fill:#231f20;fill-opacity:1;fill-rule:nonzero;stroke:none"
             id="path38" />
          <path
             d="m 3252.3791,3578.4101 c -4.676,8.102 2.016,20.738 14.957,28.219 v 0 c 12.937,7.461 27.23,6.941 31.922,-1.18 l 42.961,-74.429 c 4.683,-8.11 -2.016,-20.739 -14.946,-28.211 v 0 c -12.937,-7.457 -27.234,-6.95 -31.921,1.171 l -42.973,74.43"
             style="fill:#231f20;fill-opacity:1;fill-rule:nonzero;stroke:none"
             id="path40" />
          <path
             d="m 3449.8001,3757.7301 c -8.1,4.676 -8.62,18.985 -1.16,31.922 v 0 c 7.48,12.942 20.12,19.629 28.24,14.942 l 74.41,-42.957 c 8.12,-4.699 8.64,-18.985 1.17,-31.926 v 0 c -7.47,-12.938 -20.1,-19.629 -28.22,-14.949 l -74.44,42.968"
             style="fill:#231f20;fill-opacity:1;fill-rule:nonzero;stroke:none"
             id="path42" />
          <path
             d="m 3531.1101,4011.7541 c -9.35,0 -16.95,12.113 -16.95,27.055 v 0 c 0,14.945 7.59,27.07 16.96,27.07 l 85.94,-0.016 c 9.38,0 16.97,-12.109 16.97,-27.05 v 0 c 0,-14.934 -7.6,-27.051 -16.97,-27.059 h -85.95"
             style="fill:#231f20;fill-opacity:1;fill-rule:nonzero;stroke:none"
             id="path44" />
          <path
             d="m 3474.5201,4272.3951 c -8.1,-4.676 -20.74,2.007 -28.21,14.949 v 0 c -7.48,12.945 -6.95,27.242 1.15,31.929 l 74.43,42.957 c 8.13,4.688 20.75,-2.003 28.23,-14.945 v 0 c 7.46,-12.933 6.95,-27.226 -1.17,-31.918 l -74.43,-42.972"
             style="fill:#231f20;fill-opacity:1;fill-rule:nonzero;stroke:none"
             id="path46" />
          <path
             d="m 3295.1911,4469.8201 c -4.683,-8.1 -18.964,-8.63 -31.906,-1.16 v 0 c -12.957,7.47 -19.64,20.11 -14.965,28.23 l 42.973,74.41 c 4.691,8.13 18.977,8.64 31.914,1.17 v 0 c 12.941,-7.47 19.629,-20.1 14.953,-28.22 l -42.969,-74.43"
             style="fill:#231f20;fill-opacity:1;fill-rule:nonzero;stroke:none"
             id="path48" />
          <path
             d="m 3305.9411,4207.9341 -110.136,-111.485 -110.137,-111.492 -35.785,54.324 -35.766,54.317 145.91,57.16 145.914,57.176"
             style="fill:#231f20;fill-opacity:1;fill-rule:nonzero;stroke:none"
             id="path50" />
          <path
             d="m 2724.6291,4207.9341 110.137,-111.485 110.136,-111.492 35.786,54.324 35.765,54.317 -145.91,57.16 -145.914,57.176"
             style="fill:#231f20;fill-opacity:1;fill-rule:nonzero;stroke:none"
             id="path52" />
          <path
             d="m 3122.2231,4039.9651 c 0,-58.418 -47.352,-105.77 -105.77,-105.77 -58.41,0 -105.765,47.352 -105.765,105.77 0,58.41 47.355,105.762 105.765,105.762 58.418,0 105.77,-47.352 105.77,-105.762"
             style="fill:#231f20;fill-opacity:1;fill-rule:nonzero;stroke:none"
             id="path54" />
          <path
             d="m 3122.2231,4039.9651 c 0,-58.418 -47.352,-105.77 -105.77,-105.77 -58.41,0 -105.765,47.352 -105.765,105.77 0,58.41 47.355,105.762 105.765,105.762 58.418,0 105.77,-47.352 105.77,-105.762 z"
             style="fill:none;stroke:#ffffff;stroke-width:24.87639999;stroke-linecap:butt;stroke-linejoin:miter;stroke-miterlimit:4;stroke-dasharray:none;stroke-opacity:1"
             id="path56" />
          <rect
             style="fill:none;fill-opacity:1;stroke:none;stroke-width:7.5"
             transform="scale(1,-1)"
             y="-4741.4751"
             x="2301.4475"
             height="1425"
             width="1417.5"
             id="rect93" />
        </g>
      </g>
    </g>
  </g>
</svg>
